<?xml version="1.0" standalone="no"?>
<!DOCTYPE svg PUBLIC "-//W3C//DTD SVG 20010904//EN"
 "http://www.w3.org/TR/2001/REC-SVG-20010904/DTD/svg10.dtd">
<svg version="1.0" xmlns="http://www.w3.org/2000/svg"
 width="1600.000000pt" height="1600.000000pt" viewBox="0 0 1600.000000 1600.000000"
 preserveAspectRatio="xMidYMid meet">

<g transform="translate(0.000000,1600.000000) scale(0.100000,-0.100000)"
fill="#000000" stroke="none">
<path d="M7680 15669 c-1785 -115 -3368 -1141 -4208 -2726 -345 -650 -536
-1341 -583 -2108 -26 -424 15 -782 148 -1295 442 -1706 1880 -4467 4083 -7840
294 -451 614 -921 656 -964 118 -122 330 -122 448 0 42 43 362 513 656 964
1907 2920 3257 5409 3860 7118 181 514 308 1005 355 1372 35 273 29 629 -15
995 -189 1555 -1095 2949 -2447 3763 -880 531 -1931 787 -2953 721z m680
-2574 c456 -69 888 -257 1238 -536 289 -231 531 -533 698 -874 125 -255 196
-484 241 -775 24 -161 24 -539 0 -700 -45 -291 -116 -520 -241 -775 -205 -417
-504 -757 -893 -1016 -225 -149 -567 -295 -828 -353 -218 -49 -325 -60 -575
-60 -250 0 -357 11 -575 60 -348 78 -736 266 -1023 495 -113 90 -295 270 -387
384 -237 291 -430 685 -509 1040 -49 218 -60 325 -60 575 0 250 11 357 60 575
78 348 266 736 495 1023 90 113 270 295 384 387 386 314 879 517 1376 565 131
12 473 4 599 -15z"/>
<path d="M7836 11829 c-287 -37 -550 -171 -757 -386 -174 -181 -282 -388 -336
-643 -24 -117 -24 -363 0 -480 57 -271 178 -492 371 -678 183 -176 389 -285
646 -339 117 -24 363 -24 480 0 257 54 463 163 646 339 364 352 487 870 318
1346 l-26 72 -54 -49 c-111 -102 -244 -144 -387 -123 -113 16 -194 57 -273
136 -184 184 -190 467 -13 660 l49 54 -72 26 c-192 67 -396 90 -592 65z"/>
</g>
</svg>
